<?xml version="1.0" encoding="UTF-8" standalone="no"?>
<!-- Created with Inkscape (http://www.inkscape.org/) -->

<svg
   version="1.1"
   id="svg1"
   width="1024"
   height="1024"
   viewBox="0 0 1024 1024"
   sodipodi:docname="avatar-brand.svg"
   inkscape:version="1.4.2 (2aeb623e1d, 2025-05-12)"
   xmlns:inkscape="http://www.inkscape.org/namespaces/inkscape"
   xmlns:sodipodi="http://sodipodi.sourceforge.net/DTD/sodipodi-0.dtd"
   xmlns="http://www.w3.org/2000/svg"
   xmlns:svg="http://www.w3.org/2000/svg">
  <defs
     id="defs1" />
  <sodipodi:namedview
     id="namedview1"
     pagecolor="#505050"
     bordercolor="#ffffff"
     borderopacity="1"
     inkscape:showpageshadow="0"
     inkscape:pageopacity="0"
     inkscape:pagecheckerboard="1"
     inkscape:deskcolor="#505050"
     showgrid="false"
     inkscape:zoom="0.78417969"
     inkscape:cx="511.36239"
     inkscape:cy="512"
     inkscape:window-width="1920"
     inkscape:window-height="1011"
     inkscape:window-x="0"
     inkscape:window-y="32"
     inkscape:window-maximized="1"
     inkscape:current-layer="g1" />
  <g
     inkscape:groupmode="layer"
     inkscape:label="Image"
     id="g1">
    <path
       style="fill:#000000"
       d="m 255.09072,984.91275 c -6.10118,-2.44664 -6.3888,-6.7945 -1.66173,-25.11973 9.81135,-38.03526 23.80297,-68.74925 51.29854,-112.60901 11.19553,-17.85863 11.4575,-18.40798 10.49115,-22 -0.5451,-2.0262 -4.01304,-14.03401 -7.70653,-26.68401 -12.32381,-42.20845 -19.71748,-77.26149 -18.10716,-85.84522 0.93001,-4.95743 6.3801,-10.88878 12.35337,-13.44422 2.6079,-1.1157 8.56664,-2.79314 13.24164,-3.72764 l 8.5,-1.6991 16.5,-16.00459 16.5,-16.00459 -4.5,0.5794 c -2.475,0.31868 -9,1.26673 -14.5,2.10679 -5.5,0.84006 -12.12062,1.53003 -14.71249,1.53327 -6.61234,0.008 -14.69382,-3.28278 -19.00056,-7.73767 -6.17819,-6.39072 -55.17763,-88.9155 -63.68396,-107.25643 -5.58491,-12.0419 -5.83843,-14.34983 -3.2738,-29.80397 3.34237,-20.14069 11.07195,-58.14278 12.28854,-60.41602 0.8309,-1.55254 0.63163,-2.42439 -0.94264,-4.12436 -1.09794,-1.18561 -2.44593,-3.95565 -2.99554,-6.15565 -1.73692,-6.95269 -6.28158,-49.95036 -8.65585,-81.89414 -0.81326,-10.94178 -1.60129,-19.99451 -1.75118,-20.11718 -0.14988,-0.12267 -4.76782,-0.97106 -10.26207,-1.88531 -18.57909,-3.09158 -46.16474,-13.75926 -67.93791,-26.27235 -18.6508,-10.71866 -24.96814,-17.97959 -30.48715,-35.04085 -6.97327,-21.55692 -8.6913,-40.39604 -5.02033,-55.05068 4.79085,-19.1253 18.99192,-51.62644 29.36762,-67.21196 13.28126,-19.95 24.16144,-25.82296 45.8467,-24.74735 13.89906,0.68942 18.77611,1.97048 60.10591,15.78814 18.0869,6.04694 32.97013,10.86782 33.07383,10.71306 3.7625,-5.61486 5.97006,-8.57623 11.01883,-14.78138 3.35627,-4.125 8.96501,-11.775 12.46385,-17 23.28192,-34.768053 51.51683,-56.442076 91.5582,-70.28301 19.40314,-6.707005 37.33519,-9.719221 57.82236,-9.712969 23.391,0.0071 41.29863,4.172453 62.17764,14.462521 16.29442,8.030586 26.47469,15.709102 46.39657,34.994828 14.73914,14.26849 16.07601,15.30277 23.80882,18.41987 11.62955,4.68788 16.10925,7.84272 22.27279,15.68569 2.97613,3.78705 12.43055,13.87124 21.00981,22.40931 21.99558,21.88996 35.35955,40.06684 41.54221,56.50327 10.91475,29.01653 21.98064,100.43379 21.46333,138.52049 -0.10085,7.425 0.11827,15.975 0.48692,19 0.72343,5.93609 -0.17388,8.33955 -7.28014,19.5 -2.36607,3.71593 -3.82903,8.08176 -5.69661,17 -5.61615,26.81882 -10.95538,40.983 -15.46276,41.0204 -2.20779,0.0183 -2.58683,0.65168 -3.70942,6.19813 -0.68769,3.39774 -2.61862,8.88823 -4.29094,12.20107 -2.10085,4.16176 -3.04058,7.47492 -3.04058,10.71997 0,5.55244 1.90662,17.51296 2.97677,18.67372 0.4124,0.44731 6.99883,-4.00284 14.63652,-9.88923 31.1304,-23.99226 61.16358,-41.3846 85.59365,-49.56763 16.5058,-5.52875 25.76664,-4.16248 34.06796,5.02609 8.8906,9.84083 11.88808,19.73227 17.82381,58.81701 l 1.24525,8.19953 5.57802,0.65896 c 10.99757,1.2992 18.3998,6.20153 22.52246,14.91612 3.1137,6.58181 9.91373,33.75604 12.05402,48.17019 1.43636,9.67336 1.43447,11.07457 -0.0217,16.08359 -0.87733,3.01788 -1.456,5.60284 -1.28595,5.74436 0.17005,0.14152 3.00918,1.7297 6.30918,3.5293 22.53498,12.28903 34.13526,21.04285 38.95805,29.39858 1.3015,2.25491 3.39005,7.24984 4.64122,11.09984 2.07226,6.37659 2.30241,9.21108 2.58431,31.82746 l 0.30946,24.82746 3.3861,4.17254 c 8.22265,10.13241 14.4405,23.85642 17.05657,37.64719 1.98336,10.45543 1.97812,16.45454 -0.0195,22.31717 -1.46665,4.30436 -6.31496,9.84026 -9.56934,10.92646 -0.91373,0.30498 0.36438,2.51299 3.97419,6.86564 28.31262,34.13888 47.60615,64.25027 54.70764,85.38213 7.54239,22.44385 21.07427,102.17617 19.11418,112.62402 -0.37044,1.97454 -1.82788,4.67454 -3.23876,6 l -2.56523,2.40993 -367.66946,0.18945 c -234.65457,0.12091 -368.54109,-0.16008 -370.07874,-0.7767 z M 364.0786,964.29326 c 0.56601,-1.4887 1.11737,-4.25763 1.22525,-6.15318 0.17271,-3.03458 -0.15635,-3.54368 -2.75358,-4.26019 -1.62236,-0.44757 -3.13911,-0.62438 -3.37057,-0.39292 -0.23146,0.23145 -1.02355,3.01365 -1.76021,6.18267 -1.45847,6.27412 -0.99445,7.28577 3.35526,7.31505 1.56014,0.0105 2.59804,-0.83501 3.30385,-2.69143 z M 336.54249,961.25 c 1.20639,-8.61654 1.18519,-8.7238 -1.792,-9.06638 -2.19388,-0.25244 -2.95171,0.21542 -3.75,2.3151 -1.67352,4.40169 -1.26565,10.28534 0.74951,10.81195 3.70984,0.96949 4.13916,0.60573 4.79249,-4.06067 z m 58.8737,1.34505 c 0.76302,-4.06725 7.80221,-26.38652 13.59159,-43.09505 8.14904,-23.51869 24.61371,-63.37581 36.10454,-87.40067 C 448.90054,824.17896 452,817.52986 452,817.32354 c 0,-0.20632 -3.96108,2.2883 -8.80239,5.54359 -13.44747,9.04205 -16.36694,13.06331 -27.11191,37.34376 -13.99391,31.6221 -23.64223,58.89625 -30.67791,86.72123 -2.42428,9.58767 -4.40779,17.80017 -4.40779,18.25 0,0.44984 3.09992,0.81788 6.88871,0.81788 h 6.88871 z M 477.87986,943.25 c 22.51224,-45.08707 36.27221,-66.27027 68.0511,-104.76331 6.36297,-7.70732 12.23325,-14.85098 13.04506,-15.8748 1.96538,-2.47865 -9.85543,3.49485 -32.68756,16.51826 -47.43038,27.05421 -61.82739,40.22233 -85.09562,77.83209 C 433.94233,928.68166 416,963.06683 416,965.24249 416,965.65912 427.36715,966 441.26033,966 h 25.26032 z m 79.93857,17.34654 c 1.23909,-4.38844 1.2145,-4.99861 -0.23405,-5.80926 -5.65461,-3.16448 -19.74785,-14.8616 -29.5112,-24.49373 -6.28475,-6.20028 -11.51073,-11.16531 -11.61328,-11.0334 -0.49775,0.64027 -11.49414,34.81468 -12.46542,38.73985 -0.61244,2.475 -1.34438,5.29479 -1.62653,6.2662 -0.4828,1.6622 1.09398,1.75053 26.77648,1.5 L 556.43393,965.5 Z M 612.41251,958.25 c 7.29444,-31.79162 25.34687,-67.70553 46.6633,-92.83305 9.2325,-10.88314 27.62711,-28.58372 37.42843,-36.01624 4.39767,-3.33483 12.94576,-9.3062 18.99576,-13.2697 10.27083,-6.72867 10.63758,-6.889 5.53266,-2.41869 -28.07727,24.58689 -49.29644,51.45412 -64.59343,81.78677 -11.04888,21.90898 -16.56675,40.89226 -18.14348,62.41946 -0.56619,7.73022 -0.47415,8.36389 1.12561,7.75 0.95822,-0.3677 2.3403,-0.66855 3.0713,-0.66855 0.73099,0 3.61734,-4.28262 6.4141,-9.51693 C 667.83,920.06707 699.63213,885.9933 741.5,856.27583 754.8177,846.82303 800.5127,820 803.29852,820 c 0.48248,0 -4.1182,3.57591 -10.22375,7.94648 -21.49576,15.38741 -42.11294,33.04946 -63.64772,54.52488 -17.83592,17.78674 -29.81998,31.82387 -42.13164,49.34945 C 679.75348,942.5567 667,963.58254 667,965.28053 667,965.67624 737.425,966 823.5,966 H 980 v -2.38084 c 0,-2.63871 -2.32782,-18.35004 -6.98128,-47.11916 -3.61213,-22.33136 -6.01836,-31.54057 -10.64506,-40.7412 -4.1457,-8.2441 -7.7191,-10.83267 -20.57358,-14.90347 C 931.97947,857.7453 906.61597,853 899.81354,853 c -3.43393,0 -3.92505,0.25792 -3.33225,1.75 5.74642,14.46391 17.52467,58.49383 16.05853,60.03062 -0.14725,0.15434 -1.71849,-3.89566 -3.49165,-9 C 904.41812,892.45221 894.47191,868.7839 889.70459,859.75 l -4.08979,-7.75 -12.0574,0.0103 c -17.74034,0.0152 -56.18875,3.46626 -76.29793,6.8484 -5.63229,0.94729 -9.90729,1.4134 -9.5,1.0358 0.9482,-0.87907 21.31248,-7.15367 31.74053,-9.77983 24.68593,-6.21681 52.37165,-8.52004 74.528,-6.20013 12.67352,1.32699 34.38309,5.47993 51.972,9.94199 6.325,1.60457 11.69294,2.73782 11.92876,2.51833 0.93818,-0.87321 -8.58344,-17.70545 -14.72654,-26.03344 -8.64986,-11.72634 -32.48995,-40.07025 -45.49424,-54.08891 -19.67675,-21.21159 -32.49893,-31.08541 -50.30063,-38.73438 -13.61851,-5.85156 -33.76288,-10.04782 -44.79925,-9.33212 l -4.8416,0.31397 12.86675,8.66038 c 24.5362,16.51488 51.26794,40.55224 65.54961,58.94266 6.07387,7.82128 17.61455,24.64978 22.65704,33.03827 1.29296,2.15091 -4.26351,-2.78814 -13.57552,-12.06705 -26.29841,-26.20495 -38.15622,-35.00093 -65.90142,-48.88488 -19.75577,-9.88598 -33.08331,-15.51543 -50.52179,-21.34004 -16.97872,-5.67105 -20.39818,-5.88619 -30.88678,-1.9433 -6.63548,2.49442 -24.34308,13.85547 -34.87005,22.37235 -15.65717,12.66748 -36.18816,35.25773 -49.27893,54.22161 -16.57185,24.00674 -29.9097,52.3076 -39.68566,84.20685 -4.21129,13.74154 -10.62194,43.22184 -11.75199,54.04315 l -0.65267,6.25 h 4.45961 4.45961 z m -309.48622,-1.5 c 3.10094,-22.12327 9.28568,-51.38554 15.62908,-73.94694 1.95894,-6.96731 2.45817,-10.79757 2.2337,-17.13787 L 320.5,857.5 312.52581,870 c -15.59369,24.444 -27.02373,50.03213 -35.01078,78.37772 C 272.38861,966.57112 271.40845,965 287.88496,965 h 13.88496 z m 65.98045,-13.6712 c 0.82404,-0.52168 1.44537,-2.67231 1.5,-5.19206 0.0834,-3.84569 -0.20438,-4.40813 -2.71562,-5.30786 -3.32185,-1.19017 -4.24582,-0.17406 -5.25081,5.7744 -0.4687,2.77423 -0.26713,4.14181 0.70089,4.75515 1.7481,1.10761 3.98734,1.09611 5.76554,-0.0296 z m -28.62966,-5.49035 C 341.35031,931.18691 340.78269,930 336.64802,930 c -3.73288,0 -4.6081,1.46971 -4.63437,7.78222 -0.0103,2.47289 0.54116,3.50818 2.23635,4.19856 3.99597,1.62738 5.1601,0.779 6.02708,-4.39233 z M 565.55197,928.25 c 5.58505,-26.02866 26.82685,-65.79348 53.28501,-99.75 19.20544,-24.64834 45.46992,-54.43228 54.55188,-61.86186 2.59641,-2.12402 4.54684,-4.03578 4.33427,-4.24834 -1.2854,-1.2854 -41.92244,18.48772 -58.77219,28.59731 -13.38015,8.02788 -25.72139,16.78639 -33.95094,24.0948 -13.17199,11.69763 -32.8652,35.48067 -43.26885,52.25482 C 534.96417,878.24735 528,892.78782 528,896.00598 c 0,3.83983 5.12663,10.99815 13.28861,18.55489 6.49541,6.01376 21.01563,16.43913 22.89604,16.43913 0.42749,0 1.04278,-1.2375 1.36732,-2.75 z m -188.73835,-9.17585 c 1.41556,-4.26113 1.38644,-4.49373 -0.78245,-6.25 -3.37054,-2.72929 -4.59336,-2.25906 -6.39531,2.45928 -2.09331,5.48126 -2.06533,7.45338 0.11414,8.04481 4.07855,1.10678 5.5839,0.20017 7.06362,-4.25409 z m -34.44954,-4.71372 C 343.05852,909.29389 343.20422,904 342.64922,904 c -0.19292,0 -1.73982,0.48422 -3.43754,1.07605 -2.78906,0.97227 -3.15122,1.5919 -3.755,6.42435 -0.79309,6.34774 -0.26069,7.4996 3.46641,7.4996 2.57898,0 2.85632,-0.37395 3.44099,-4.63957 z M 382.41793,900.75 c 2.92198,-7.21679 2.8482,-8.46158 -0.57221,-9.65394 -4.10094,-1.42959 -3.75334,-1.57147 -5.27696,2.15394 -2.99272,7.31752 -2.96918,7.67466 0.60827,9.22845 1.82763,0.7938 3.45843,1.46088 3.624,1.48241 0.16556,0.0215 0.89317,-1.42336 1.6169,-3.21086 z M 344,885 c 0,-7 0,-7 -2.8,-7 -3.66647,0 -5.2,1.66179 -5.2,5.6349 0,5.71154 1.57824,8.3651 4.97525,8.3651 H 344 Z m 46.47432,-6.95034 c 2.1712,-4.19864 1.89431,-6.76202 -0.93034,-8.6128 -3.12712,-2.04897 -3.84742,-1.5493 -6.03894,4.18912 -1.72968,4.5291 -1.7282,4.73767 0.0428,6.03266 2.90946,2.12745 5.27893,1.57704 6.92648,-1.60898 z m -48.05611,-9.65665 c 1.09409,-0.41984 1.57707,-1.88438 1.56648,-4.75 -0.0211,-5.71677 -0.81009,-6.62956 -4.99584,-5.77999 -2.87952,0.58444 -3.54615,1.2033 -3.81693,3.54338 -0.56481,4.88101 0.60164,7.5936 3.26534,7.5936 1.31954,0 3.11097,-0.27314 3.98095,-0.60699 z m 56.01105,-13.13942 c 1.51932,-4.45895 1.51031,-4.82461 -0.14874,-6.03774 -3.15036,-2.30359 -5.60742,-1.05323 -7.37925,3.75519 -1.60827,4.36459 -1.59695,4.49917 0.47561,5.65196 4.03744,2.24568 5.35335,1.61698 7.05238,-3.36941 z m -59.47224,-7.38845 c 3.13507,-1.09289 3.23133,-1.28705 2.60288,-5.25 -0.83234,-5.24867 -2.46669,-6.92762 -5.90384,-6.06495 -2.27016,0.56977 -2.65408,1.19572 -2.64241,4.30822 0.0162,4.32924 0.93109,8.14159 1.95376,8.14159 0.40378,0 2.1991,-0.51069 3.98961,-1.13486 z M 360.92422,821 c 4.48085,-37.88805 4.8816,-48.74808 2.98902,-81 -0.59708,-10.175 -1.15932,-21.425 -1.24942,-25 -0.18331,-7.27322 -0.7054,-6.03684 14.65428,-34.70357 4.77505,-8.91196 8.6819,-16.49397 8.6819,-16.84892 0,-0.58928 -38.08237,35.58284 -49.22311,46.75404 -2.59772,2.60482 -5.01093,5.88277 -5.36271,7.28435 -1.13445,4.52002 7.92561,52.18985 17.58311,92.5141 3.22721,13.475 6.14761,26.75 6.48978,29.5 0.34217,2.75 0.89658,6.125 1.23203,7.5 0.70667,2.89658 1.00797,1.03367 4.20512,-26 z m 45.14645,13.33513 c 2.18241,-5.09135 1.8585,-5.92146 -2.83591,-7.2678 -3.09542,-0.88776 -3.14917,-0.8411 -4.81761,4.18211 -1.61027,4.84807 -1.60393,5.14081 0.13892,6.41522 3.40658,2.49095 5.39784,1.60867 7.5146,-3.32953 z m -68.69236,-12.76288 c -0.1607,-4.94454 -2.23878,-6.98144 -6.22859,-6.10513 -2.81663,0.61863 -3.02305,0.93827 -2.4887,3.85373 1.0177,5.55271 2.88163,7.63136 6.06038,6.75854 2.4405,-0.67011 2.76379,-1.21855 2.65691,-4.50714 z m 75.17272,-6.04013 c 2.14376,-5.13074 1.84365,-7.43157 -1.11613,-8.55687 -4.04727,-1.53877 -4.95252,-1.19814 -6.23401,2.34575 -1.91248,5.28887 -1.52991,7.39216 1.54911,8.51672 4.10029,1.49755 4.23421,1.44433 5.80103,-2.3056 z m 49.79689,-25.88413 C 500.27425,761.22008 518.16084,748.81885 593.73548,698.55366 701.37673,626.96074 723.93676,612.99068 752.01091,600.54328 764.54788,594.98468 773.9781,592 779.00371,592 c 2.08881,0 8.89338,1.9707 15.14467,4.38611 l 11.35162,4.38611 -10,0.65808 c -31.46066,2.07036 -61.54285,13.09896 -100.5,36.84485 -16.20114,9.87522 -20.73586,13.0076 -45,31.08394 -22.25559,16.58001 -25.74835,19.2833 -70,54.1779 -14.575,11.4931 -38.24639,29.68651 -52.6031,40.42978 -14.3567,10.74328 -27.4067,20.57547 -29,21.84932 l -2.8969,2.31609 4,-2.1941 c 6.5123,-3.57217 73.29938,-42.03763 110.5,-63.64157 57.79504,-33.56397 94.84013,-52.9323 133,-69.53656 35.25971,-15.34233 53.79127,-20.15036 82.5,-21.40471 16.58513,-0.72464 26.07593,0.72134 38.13556,5.81018 l 7.86444,3.31858 -11,0.78647 c -17.00365,1.21571 -38.70319,6.08549 -58,13.01627 l -4,1.43667 5.5,0.69996 c 40.51725,5.15644 65.76407,15.1888 83.66927,33.24776 l 7.16928,7.23083 0.72229,-7.70098 c 0.87805,-9.36162 -0.0613,-34.41877 -1.60552,-42.82607 -1.92669,-10.48981 -6.68927,-14.65693 -33.45532,-29.27253 -8.25,-4.5049 -16.02646,-9.20755 -17.28102,-10.45031 -3.70495,-3.6701 -3.93964,-8.69901 -0.70437,-15.0934 2.386,-4.71585 2.69456,-6.28012 2.22258,-11.26739 -0.61013,-6.44698 -5.6413,-27.66141 -9.36064,-39.47006 -3.98269,-12.64476 -9.93794,-15.87808 -25.87655,-14.04931 -15.4881,1.77708 -27.8871,6.9962 -64.30794,27.0692 -29.77641,16.41098 -47.46628,27.62569 -93.19206,59.08025 -23.50759,16.17077 -69.97366,46.45507 -84.49267,55.06818 -19.89793,11.80405 -49.6213,28.0045 -66.21295,36.08878 -14.64136,7.13399 -19.17833,8.86086 -11.29438,4.29887 49.41742,-28.59503 99.36279,-63.95858 157.90627,-111.80471 28.1008,-22.96608 62.14441,-49.92492 76.15145,-60.30367 15.01792,-11.12778 41.72162,-28.37711 47.08628,-30.41552 6.80392,-2.58529 10.26326,-2.34299 21.26239,1.48924 6.6291,2.30966 9.59361,2.9523 9.59361,2.07968 0,-1.82937 -5.89388,-18.27299 -8.11212,-22.63237 -2.68925,-5.28505 -2.3652,-5.64481 1.61212,-1.78984 l 3.5,3.39233 0,-5.01466 c 0,-9.21943 -4.3087,-20.38166 -10.33322,-26.76951 -4.79849,-5.08788 -8.68592,-4.90667 -19.51987,0.90989 -9.20795,4.94359 -35.13753,22.83117 -62.14691,42.87217 -96.92866,71.92125 -95.93671,71.08003 -150.77504,127.8636 -45.47596,47.08909 -63.50614,63.06484 -83.44724,73.93892 -15.065,8.2151 -13.98722,6.95246 -16.51096,19.34297 -5.28544,25.94938 -18.64308,80.12278 -21.25801,86.21429 -0.53123,1.2375 -0.70645,2.25 -0.38939,2.25 0.31707,0 12.79492,-9.1584 27.72856,-20.35201 z m -130.92971,14.74502 c 1.8576,-0.71283 2.00284,-2.88674 0.48396,-7.24379 C 331.09618,794.83714 330.18754,794 328.48396,794 c -5.48999,0 -6.49552,1.7998 -4.38613,7.85078 1.10885,3.18087 3.49587,4.00983 7.32038,2.54223 z m 87.96958,-9.58194 c 1.05161,-5.25806 0.72553,-6.56581 -1.79489,-7.1984 -1.3239,-0.33228 -3.04708,-0.84973 -3.82928,-1.14988 -0.98507,-0.37801 -1.78202,0.65524 -2.5929,3.36175 -1.78809,5.96811 -1.51257,7.0267 2.07928,7.98892 4.3333,1.16086 5.41052,0.63392 6.13779,-3.00239 z M 325.55643,783.5824 c 1.82884,-1.33728 1.85272,-1.66307 0.42153,-5.75 -1.40552,-4.01362 -1.76491,-4.32046 -4.88435,-4.17007 -1.85196,0.0893 -3.69795,0.69748 -4.10219,1.35156 -0.74345,1.20292 0.16451,6.81136 1.43568,8.86816 0.96268,1.55764 4.81051,1.39591 7.12933,-0.29965 z m 97.88265,-8.3324 c 0.36074,-1.5125 0.87425,-3.48835 1.14113,-4.39077 0.34103,-1.15317 -0.46037,-1.9704 -2.69671,-2.75 -4.90192,-1.70882 -5.7097,-1.39653 -6.83092,2.64077 -1.75131,6.30619 -1.36291,6.85067 5.08901,7.134 2.09909,0.0922 2.77629,-0.44876 3.29749,-2.634 z M 321.74407,762.22455 C 322.49645,760.26388 319.9143,753 318.46494,753 c -0.66822,0 -2.66821,0.29065 -4.44442,0.6459 -3.13414,0.62682 -3.21069,0.76337 -2.59315,4.62524 1.08782,6.80286 1.97222,7.72593 6.16838,6.43809 1.99174,-0.61128 3.85849,-1.72939 4.14832,-2.48468 z M 640.5,742.26473 c 39.98946,-15.93354 61.98563,-21.46121 132.5,-33.29745 26.85513,-4.50779 60.68448,-6.15408 73,-3.55253 3.575,0.7552 6.63058,1.25274 6.79017,1.10566 0.53446,-0.49256 -18.72827,-8.61817 -29.75573,-12.55189 -41.38537,-14.76299 -67.58212,-15.49779 -110.13201,-3.08914 -35.42093,10.32966 -73.09425,32.91661 -118.97252,71.32971 -3.92109,3.28306 -2.5347,2.76255 12.07009,-4.53165 9.075,-4.5324 24.6,-11.46812 34.5,-15.41271 z m -212.56698,12.087 c 0.64374,-2.55654 0.80967,-4.97294 0.36871,-5.36976 -0.44095,-0.39682 -2.48781,-0.97658 -4.54859,-1.28835 -3.37214,-0.51017 -3.79717,-0.32318 -4.25,1.86976 -0.27672,1.34014 -0.75424,3.63143 -1.06113,5.09176 -0.65892,3.13541 0.7463,4.30782 5.18928,4.32955 2.89518,0.0142 3.21953,-0.33517 4.30173,-4.63296 z M 316.25901,742.82166 c 1.31015,-0.67159 1.59382,-1.5932 1.11167,-3.61167 -1.29,-5.40035 -2.25929,-6.34307 -6.18608,-6.01646 -3.22268,0.26805 -3.72557,0.6647 -4.0114,3.16396 -0.17973,1.57163 0.21044,4.15448 0.86705,5.73968 1.01136,2.44164 1.59628,2.78619 3.82679,2.25417 1.44813,-0.3454 3.42451,-1.03376 4.39197,-1.52968 z m 595.8177,-12.77409 c -7.15173,-19.5962 -14.99163,-28.1971 -35.93588,-39.42408 -15.2961,-8.19933 -16.01323,-8.2988 -6.0774,-0.84295 13.47517,10.11178 37.72134,37.66071 42.43657,48.21719 3.33457,7.46546 3.01548,1.4723 -0.42329,-7.95016 z M 430.29851,734.25 c 0.30168,-1.5125 0.86569,-5.55929 1.25336,-8.99287 0.77707,-6.88253 -0.23602,-9.26836 -3.92431,-9.24182 -4.13467,0.0298 -4.92958,1.45911 -5.36257,9.64262 l -0.41492,7.84207 3.32496,1.61469 c 4.56388,2.21634 4.50703,2.22594 5.12348,-0.86469 z M 310.30563,722.0739 c 2.33946,-0.88946 2.39613,-1.12681 1.43258,-6 -0.914,-4.62263 -1.24737,-5.0739 -3.74828,-5.0739 -4.12082,0 -5.32443,2.04404 -4.03133,6.84624 0.59223,2.19939 1.63132,4.22321 2.30909,4.49738 0.67777,0.27417 1.31552,0.53401 1.41721,0.57743 0.1017,0.0434 1.28102,-0.33779 2.62073,-0.84715 z m 132.61679,-29.87024 c 3.06767,-2.63798 8.16243,-6.79248 11.32169,-9.23222 6.04396,-4.66746 76.66836,-77.14554 80.58529,-82.70042 3.59083,-5.09243 16.98179,-47.33745 15.96863,-50.37692 -0.19254,-0.57762 -2.43963,2.24742 -4.99355,6.27785 -10.99355,17.34931 -51.03641,70.05576 -75.94479,99.96239 -17.691,21.24098 -17.54491,21.15469 -35.00978,20.67939 L 423.32207,676.5 l 3.8844,6.34185 c 7.14146,11.65946 8.81427,14.15815 9.4785,14.15815 0.36293,0 3.16978,-2.15835 6.23745,-4.79634 z M 341.86381,647.96029 c 7.37492,-1.76844 15.083,-6.33241 28.63619,-16.95557 19.66846,-15.41637 49.87349,-41.5452 65.10026,-56.3149 L 449.19825,561.5 444.59913,552.07258 C 442.06961,546.8875 440,541.92946 440,541.05471 c 0,-0.87474 1.14664,-3.27787 2.54808,-5.34027 1.40144,-2.06241 2.30321,-4.14605 2.00392,-4.6303 -0.29928,-0.48425 -2.83533,-1.70435 -5.63566,-2.71134 -9.95162,-3.57855 -14.87273,-9.96645 -14.92442,-19.3728 -0.0368,-6.70341 -0.79248,-7.90662 -4.57957,-7.29206 -5.23565,0.84963 -6.64089,-0.90152 -12.55801,-15.64919 -2.94916,-7.35043 -2.96464,-7.48774 -1.2681,-11.25 0.94463,-2.09481 2.16104,-3.80875 2.70314,-3.80875 2.02272,0 -6.66471,-6.00963 -10.03111,-6.93913 -4.00738,-1.10649 -3.92461,-1.14259 -33.36661,14.55243 C 355.20708,483.77598 346.07223,488 344.592,488 c -3.31458,0 -4.1476,-0.42322 -30.04641,-15.2654 C 290.0953,458.72255 280.59464,454 276.85595,454 c -3.33614,0 -10.59881,5.39555 -13.15572,9.77357 -1.04211,1.78435 -2.50991,5.60276 -3.26177,8.48535 C 258.75246,478.72298 250,530.85406 250,534.43211 c 0,3.81121 10.04847,22.72075 32.45129,61.06789 19.88175,34.0318 29.65042,49.54167 33.17116,52.66634 1.03265,0.91648 3.22755,1.81648 4.87755,2 3.718,0.41352 15.52301,-0.80548 21.36381,-2.20605 z m 4.84076,-32.6451 c -4.30777,-5.17251 -4.03691,-6.09791 2.86698,-9.79499 l 3.69705,-1.97979 3.863,4.47979 c 2.12464,2.46389 3.86421,4.79568 3.8657,5.18176 0.003,0.8697 -8.55029,6.82194 -9.67748,6.73429 -0.4509,-0.0351 -2.52776,-2.11454 -4.61525,-4.62106 z m -14.44852,-17.29401 -4.12571,-5.97881 6.13426,-3.45695 c 3.37384,-1.90132 6.46693,-3.25135 6.87353,-3.00005 C 341.95282,586.08888 348,596.41119 348,597.29834 348,597.83293 337.71106,604 336.81916,604 c -0.24056,0 -2.29396,-2.69047 -4.56311,-5.97882 z m 34.82844,1.56599 -3.30784,-3.41283 4.26171,-3.08717 c 2.34394,-1.69794 4.5317,-3.08509 4.86168,-3.08254 0.9423,0.007 7.09996,6.00293 7.09996,6.91317 0,0.90478 -7.47593,6.0822 -8.78239,6.0822 -0.4539,0 -2.31381,-1.53577 -4.13312,-3.41283 z m -13.99517,-14.48049 -4.09692,-4.89331 4.84135,-3.10669 c 2.66274,-1.70867 5.25195,-3.09277 5.7538,-3.07576 0.50185,0.017 2.47233,2.1004 4.37886,4.62976 l 3.4664,4.59884 -3.9664,3.35536 c -2.18153,1.84545 -4.48701,3.36206 -5.12329,3.37024 -0.63629,0.008 -3.0005,-2.18711 -5.2538,-4.87844 z m 30.74614,1.03004 -3.33546,-2.9878 2.93709,-3.07446 c 3.3635,-3.52081 5.09828,-3.7719 8.41825,-1.21847 2.98853,2.29853 2.5184,4.72089 -1.51988,7.83119 l -3.16455,2.43734 z m -65.18528,-10.24408 -3.38531,-7.10737 5.11757,-2.38286 c 2.81466,-1.31058 5.67402,-2.38727 6.35414,-2.39264 0.68012,-0.005 1.91762,1.56523 2.75,3.49023 0.83238,1.925 2.20225,5.09365 3.04415,7.04144 l 1.53074,3.54143 -5.55925,2.45857 C 325.44463,581.89365 322.73879,583 322.48923,583 c -0.24956,0 -1.97713,-3.19831 -3.83905,-7.10736 z m 52.57205,-4.16335 -3.1701,-3.27072 3.42051,-2.72928 C 373.35391,564.22818 375.28299,563 375.75948,563 376.99494,563 382,568.39215 382,569.72316 382,570.67154 376.11709,575 374.82813,575 c -0.23969,0 -1.86234,-1.47182 -3.6059,-3.27071 z m 25.00028,1.71401 c -3.00518,-2.10491 -2.79711,-3.78202 0.84995,-6.85081 2.45005,-2.06159 3.46292,-2.37633 5,-1.55371 2.50054,1.33825 2.44724,4.03081 -0.14504,7.32636 -2.42097,3.07777 -2.75889,3.14163 -5.70491,1.07816 z m -56.56017,-6.02749 C 337.64805,564.31237 336,561.37074 336,560.87887 c 0,-1.21479 12.03773,-6.97359 13.14569,-6.28883 1.01894,0.62974 4.27723,6.873 5.27944,10.11603 0.65617,2.12327 -1.21442,3.55875 -10.51279,8.06742 -0.32322,0.15672 -2.23572,-2.25423 -4.25,-5.35768 z m 42.89485,-6.35611 c -1.54934,-1.61717 -2.58476,-3.54546 -2.30094,-4.2851 0.28383,-0.73964 2.41934,-2.66378 4.74558,-4.27587 l 4.22954,-2.93107 2.38431,2.77193 c 3.06833,3.56714 3.00558,5.40252 -0.30277,8.85569 -3.41135,3.56068 -5.24162,3.53234 -8.75572,-0.13558 z m -22.56623,-5.19262 c -4.3532,-6.55388 -4.37375,-6.36435 1.00904,-9.30692 1.375,-0.75166 6.55,-3.91485 11.5,-7.02931 l 9,-5.66265 2.23713,4.8159 c 1.23043,2.64874 2.23378,5.4909 2.22967,6.3159 -0.006,1.19857 -14.77556,12.894 -20.55044,16.27306 -0.92002,0.53832 -2.56737,-1.10313 -5.4254,-5.40598 z m -49.78133,-3.0746 C 308.99433,549.86036 308,547.14512 308,546.75861 c 0,-0.38651 2.5875,-1.45138 5.75,-2.36638 3.1625,-0.915 6.25746,-1.8546 6.87769,-2.08799 1.0924,-0.41107 1.89449,2.19749 3.02311,9.83174 0.52948,3.58155 0.47997,3.64348 -3.30664,4.13648 -2.11429,0.27528 -4.76233,0.8044 -5.88453,1.17583 -1.74115,0.5763 -2.3644,-0.10646 -4.25,-4.65581 z m 23.4626,-6.03451 c -3.18696,-7.62749 -3.25447,-7.39643 2.82543,-9.67121 3.06755,-1.14772 5.79662,-2.08676 6.0646,-2.08676 0.53429,0 2.17454,3.90502 3.49537,8.32161 0.76618,2.56197 0.5442,2.94681 -2.41227,4.1821 -7.34379,3.06843 -8.41286,2.98849 -9.97313,-0.74574 z m 18.42749,-10.27607 c -1.31827,-2.48496 -2.2175,-4.67964 -1.99828,-4.87708 0.87112,-0.78461 9.10223,-4.72375 9.24547,-4.42458 0.0842,0.17587 1.16559,2.20891 2.40309,4.51788 1.2375,2.30896 2.25,4.42541 2.25,4.7032 0,0.37465 -8.61476,4.59868 -9.37884,4.59868 -0.0685,0 -1.20318,-2.03315 -2.52144,-4.5181 z m -44.48929,-2.59868 c -0.23597,-0.76077 -0.86512,-3.26858 -1.3981,-5.57291 -1.10738,-4.78776 -1.01516,-4.86962 6.62922,-5.88368 l 4.86591,-0.64548 1.20088,4.7691 c 1.48553,5.89957 0.52765,7.15412 -6.16245,8.0711 -3.55979,0.48792 -4.81095,0.30809 -5.13546,-0.73813 z M 367.98927,527.75 c -1.08973,-1.7875 -1.83328,-3.7 -1.65231,-4.25 0.41126,-1.24995 9.43601,-5.06036 10.19279,-4.30358 0.30568,0.30568 0.8161,2.15996 1.13427,4.12063 0.52566,3.23926 0.27059,3.75258 -2.79276,5.62017 -4.37856,2.66941 -4.54873,2.64005 -6.88199,-1.18722 z m -37.9024,-0.58767 c -0.50014,-0.93453 -1.22095,-3.36014 -1.6018,-5.39023 -0.69152,-3.6861 -0.68657,-3.69257 3.66124,-4.78736 6.05553,-1.5248 6.01942,-1.53785 7.49864,2.71025 1.72828,4.96336 1.71887,5.03993 -0.78434,6.37961 -4.64671,2.48684 -7.81475,2.8796 -8.77374,1.08773 z M 348.94558,518.25 c -0.55271,-1.5125 -1.18982,-3.2796 -1.41581,-3.92689 -0.51099,-1.4636 1.05978,-2.7273 5.05853,-4.06963 2.92861,-0.9831 3.14838,-0.87058 4.25,2.1759 1.73015,4.78464 1.48653,5.53695 -2.30618,7.12165 -4.50576,1.88262 -4.41547,1.90365 -5.58654,-1.30103 z m -45.44346,-9.23459 c -0.38907,-2.8289 -0.4357,-5.41517 -0.10361,-5.74726 0.33209,-0.33209 3.01956,-0.80413 5.97216,-1.04898 l 5.36835,-0.44519 0.70985,4.73365 c 0.39042,2.6035 0.33664,5.08354 -0.11951,5.51119 -0.45615,0.42764 -3.14472,1.0841 -5.9746,1.45879 l -5.14524,0.68125 z m 58.90909,2.48683 c -0.85415,-3.40318 0.0631,-5.35188 3.05448,-6.4892 3.40595,-1.29493 5.19527,-0.42437 6.43455,3.13065 0.98439,2.82381 0.85616,3.06014 -2.398,4.41982 -4.85215,2.02736 -6.37296,1.79975 -7.09103,-1.06127 z m -38.29562,-4.95748 C 323.50201,504.10804 323,501.90586 323,501.65102 c 0,-0.25484 2.30516,-0.78038 5.12257,-1.16788 5.68662,-0.78211 6.83547,0.01 6.86212,4.72832 0.0133,2.34879 -0.55313,2.86391 -4.23469,3.85133 -2.3375,0.62693 -4.53549,1.31368 -4.88441,1.52612 -0.34893,0.21244 -1.13643,-1.60743 -1.75,-4.04415 z m 20.44111,-3.76727 c -2.10408,-3.00399 -2.00597,-3.34876 1.34836,-4.73816 4.3927,-1.81952 7.5383,-1.02485 7.89039,1.99335 0.24274,2.08079 -0.30519,2.74987 -3.071,3.75 -4.38096,1.58417 -4.35063,1.58911 -6.16775,-1.00519 z m 138.57326,52.63505 c 7.9655,-5.36038 21.00826,-16.70131 28.78761,-25.03136 C 518.47688,523.35754 525,514.60844 525,512.83445 c 0,-0.84851 -15.20134,-10.95412 -18.16611,-12.07653 -1.11464,-0.42199 -4.97135,1.74784 -11.65218,6.55566 -22.57637,16.24695 -30.01126,21.56542 -36.44062,26.06742 l -6.7589,4.73276 3.01344,4.37989 c 4.37415,6.35761 17.6263,16.4521 21.65388,16.4943 0.63223,0.007 3.54844,-1.60231 6.48045,-3.57541 z m 128.68269,-63.39691 c 5.12196,-1.22301 9.17196,-2.34406 9,-2.49121 -0.17196,-0.14716 -5.93765,0.18749 -12.81265,0.74366 -27.91647,2.25837 -48.86486,-3.23961 -61.98465,-16.26808 -7.08853,-7.03919 -10.6748,-13.81116 -11.95055,-22.5663 -1.77157,-12.15781 -3.1748,-47.573 -3.76758,-95.08746 l -0.5758,-46.15377 2.98384,-6.34623 c 1.64112,-3.49043 5.34275,-9.15874 8.22584,-12.59624 2.8831,-3.4375 4.92584,-6.25 4.53942,-6.25 -1.62155,0 -10.66684,7.45501 -16.12587,13.29072 -6.72692,7.1911 -8.22744,10.88556 -9.02042,22.20928 -0.92052,13.14503 3.21534,105.36857 5.73679,127.92188 0.5486,4.90704 1.85573,10.86215 2.90473,13.23359 5.90233,13.34321 24.08767,26.35838 43.8217,31.36301 10.06821,2.55334 25.82796,2.14835 39.0252,-1.00285 z m -186.99283,-4.24497 c 2.5741,-1.77613 15.03018,-9.60227 27.68018,-17.39141 26.47397,-16.30115 25.20131,-14.56932 20.73046,-28.20986 l -2.73046,-8.33062 -16,10.73146 C 428.43943,462.04948 413,474.39012 413,477.74092 413,479.32761 418.7963,491 419.58422,491 c 0.30549,0 2.66151,-1.4532 5.2356,-3.22934 z m 196.34926,-9.68065 c 9.43664,-2.4201 13.97151,-4.68629 19.98253,-9.98578 3.89552,-3.4344 8.00568,-10.10423 6.22655,-10.10423 -0.2848,0 -2.39889,1.28946 -4.69798,2.86548 -10.13395,6.94673 -19.40779,10.25829 -34.173,12.20269 -11.10969,1.46302 -22.01862,0.62779 -28.56117,-2.18674 C 569.68992,466.46938 559.12286,451.30365 557.03514,438 c -1.47904,-9.42496 -1.38311,-122.66653 0.10767,-127.10078 0.62855,-1.86957 4.05869,-7.88642 7.62253,-13.37078 C 572.61593,285.44726 574,281.76134 574,272.93557 c 0,-8.65036 -6.46064,-46.72954 -8.22818,-48.49708 -0.37327,-0.37328 -1.88499,-0.37592 -3.35936,-0.006 -2.60609,0.65409 -2.66483,0.83134 -2.11121,6.3701 0.31321,3.13351 1.30817,10.42229 2.21102,16.19729 3.25687,20.83211 1.48558,28.56825 -10.07438,44 -10.592,14.1396 -9.96412,11.21084 -9.75441,45.5 0.19561,31.98344 1.86979,84.29312 3.32462,103.87789 0.71337,9.60324 1.38234,12.89985 3.49327,17.21444 5.32334,10.88052 20.45172,20.19544 36.99863,22.78098 6.46474,1.01015 27.13534,-0.35121 34.66908,-2.2833 z M 608,459.08437 l 5.5,-0.71783 -3,-1.23506 c -12.12661,-4.99233 -18.6402,-10.98438 -23.81502,-21.90815 -3.14003,-6.62844 -3.18909,-6.96327 -3.4759,-23.72333 -0.16001,-9.35 0.14128,-32.075 0.66953,-50.5 0.76817,-26.79345 1.32378,-34.90137 2.7753,-40.5 l 1.81485,-7 0.73239,52 c 0.40758,28.93816 1.21295,54.83329 1.81597,58.38852 1.73392,10.22285 7.34689,19.63274 13.43382,22.52117 6.49646,3.08278 23.33152,1.29275 32.67576,-3.47433 6.19511,-3.16051 12.55722,-10.05559 13.92966,-15.0966 0.89462,-3.28596 0.957,-17.68452 0.25707,-59.33876 -1.07944,-64.2392 0.15011,-57.75899 -14.20204,-74.85041 L 628,282.79919 v 7.13252 c 0,8.11228 1.16963,11.48269 6.92696,19.96073 2.24017,3.2988 4.07304,6.48166 4.07304,7.07301 0,1.4381 -6.43712,-1.92417 -11.71165,-6.11729 -9.18735,-7.30372 -11.07779,-11.98277 -14.28147,-35.34816 -2.21519,-16.15601 -8.75841,-51.51027 -9.84396,-53.1888 -0.36461,-0.56377 -6.23782,-1.34517 -13.05159,-1.73647 l -12.38867,-0.71143 0.68727,3.31835 c 2.44829,11.82106 8.58161,51.13618 8.58544,55.0334 0.007,7.30082 -2.52759,13.31115 -10.83812,25.69897 l -7.65725,11.41402 -0.27516,54.47405 c -0.17348,34.34499 0.10566,56.53408 0.75543,60.049 1.08654,5.87763 5.69865,16.65397 8.83308,20.63875 6.52938,8.30076 14.67287,10.61932 30.18665,8.59453 z m -260,-6.40182 c 40.34609,-21.06281 85.63117,-46.46959 105.17597,-59.00803 5.58455,-3.58262 5.68744,-3.73413 6.38849,-9.40789 0.3919,-3.17165 2.81791,-20.77668 5.39115,-39.12231 l 4.67863,-33.35567 -5.64625,-11.64786 -5.64624,-11.64786 -21.92088,-6.29929 c -12.05648,-3.46461 -30.43793,-8.79587 -40.84768,-11.84724 -34.90537,-10.23169 -34.79718,-10.21629 -52.01658,-7.4043 -36.91832,6.0289 -69.82501,17.43915 -92.41775,32.04545 l -6.36114,4.1125 0.61556,6.19998 c 0.33855,3.40998 1.08128,13.39997 1.6505,22.19997 1.10963,17.15455 1.37453,20.13194 5.87764,66.06143 3.98228,40.61725 5.18976,51.00044 6.10277,52.47772 1.70668,2.76146 3.9872,-0.45707 8.49982,-11.99592 3.10818,-7.94767 5.592,-12.77592 7.23875,-14.07126 2.79421,-2.19792 7.23984,-2.55413 10.55298,-0.84556 1.96827,1.01503 31.21546,19.78382 47.68426,30.60041 6.86786,4.51076 10.60916,5.24798 15,2.95573 z M 503.91797,431.5 c -2.6287,-38.22798 -3.09945,-47.20155 -3.61976,-69 -0.78653,-32.95218 1.39941,-51.01505 7.67928,-63.45542 3.92909,-7.78347 11.50027,-16.56144 19.43831,-22.53662 3.64757,-2.74563 6.12769,-5.16013 5.51138,-5.36557 -0.61631,-0.20543 -4.86825,1.48353 -9.44876,3.75326 -9.95141,4.93112 -15.3098,10.4482 -20.01174,20.60435 -6.98536,15.08836 -9.3897,38.66466 -7.546,73.99404 1.67293,32.05692 6.76785,76.3912 8.54219,74.33132 0.15415,-0.17895 -0.0911,-5.72536 -0.5449,-12.32536 z M 671.93693,419.34292 C 674.45795,406.93121 674.45735,407 672.04531,407 c -2.24759,0 -2.62806,1.63956 -3.59685,15.5 -0.82241,11.76623 0.74551,10.34724 3.48847,-3.15708 z m 10.31307,-42.05185 2.75,-3.61313 -0.01,-20.08897 C 684.9697,312.12122 681.82374,286.21032 671.38088,241.5 c -4.87085,-20.85419 -7.53885,-27.49855 -15.25305,-37.98601 -5.4278,-7.37911 -24.26558,-28.70958 -24.84385,-28.1313 -0.18697,0.18696 0.11012,1.52367 0.66019,2.97047 2.63258,6.9242 8.10701,40.4555 11.04425,67.64684 0.56441,5.225 1.27521,10.85 1.57956,12.5 1.00933,5.47191 -1.35083,0.55533 -5.04042,-10.5 -1.92734,-5.775 -5.07822,-18.104 -7.00197,-27.39778 -7.29562,-35.24578 -12.78936,-52.44684 -20.70318,-64.82228 C 607.49718,149.01626 600.26601,141 598.48998,141 c -0.60148,0 -1.13956,1.6214 -1.19574,3.60312 -0.0562,1.98172 -0.8919,6.64812 -1.85718,10.36979 l -1.75505,6.76667 6.22945,17.38021 c 3.42619,9.55912 8.19909,20.75521 10.60645,24.88021 6.084,10.42493 6.85885,12.57809 10.40355,28.90971 3.42862,15.79674 5.58394,20.65814 13.18387,29.73662 8.98935,10.7382 24.8664,31.19083 26.81518,34.54298 3.06952,5.27997 3.96376,13.57116 4.4798,41.53564 0.44058,23.87552 0.67272,26.65273 2.59116,31 2.34299,5.30929 8.64083,12.37364 10.38387,11.64767 0.61856,-0.25763 2.36216,-2.09433 3.87466,-4.08155 z M 485,258.49593 c -9.68205,-6.08895 -38.90017,-21.08892 -59,-30.28936 -32.79566,-15.01179 -55.24991,-23.60331 -87,-33.28822 -25.90447,-7.90178 -54.73167,-17.16814 -90.3639,-29.04703 -18.07514,-6.02579 -36.52514,-11.83378 -41,-12.90665 -15.46681,-3.70822 -25.36838,-2.09867 -35.87558,5.83177 -5.30983,4.00766 -16.75958,17.24266 -16.7603,19.37356 -1.2e-4,0.3685 2.58728,-1.91313 5.74978,-5.07029 3.53553,-3.52957 8.43616,-7.06116 12.72478,-9.17 5.99403,-2.94745 8.19319,-3.47828 15.63983,-3.7751 11.58224,-0.46166 14.59099,0.36565 79.38539,21.82861 29.7,9.83804 61.2,20.14835 70,22.9118 55.20408,17.33566 112.08995,38.38362 138,51.06045 13.72144,6.7134 16.41595,7.51873 8.5,2.54046 z m 34,-1.27752 c 0,-3.373 -6.93233,-25.85303 -11.40251,-36.97582 C 493.59939,185.41217 468.3629,146.39075 447.29431,127 c -12.69067,-11.68003 -14.74729,-11.30729 -3.2527,0.58952 29.2573,30.28108 54.01609,73.54644 67.40697,117.79198 1.97776,6.53482 3.83747,12.27232 4.13269,12.75 0.96689,1.56445 3.41873,0.9096 3.41873,-0.91309 z M 484.39369,237.25 c -0.35443,-1.5125 -2.84483,-9.5 -5.53421,-17.75 -10.88422,-33.38862 -31.83077,-67.27526 -57.02906,-92.25973 -4.58173,-4.54285 -9.75786,-9.12741 -11.5025,-10.18792 -3.1173,-1.89489 -3.32918,-1.896 -12.26824,-0.0646 -29.82596,6.11071 -65.47315,24.38711 -86.92312,44.56571 l -8.27628,7.78573 15.81986,4.74334 c 8.70092,2.60884 24.28399,7.26914 34.62903,10.35622 34.61586,10.32979 68.46197,24.12984 106.69083,43.50096 12.925,6.54929 23.84607,11.9421 24.26905,11.98403 0.42298,0.0419 0.47907,-1.16126 0.12464,-2.67376 z M 578.75,208.33893 c 15.04968,-0.43855 16.25,-0.61193 16.25,-2.34721 0,-2.08239 -1.44585,-3.26346 -4.48242,-3.66153 -5.65933,-0.74189 -35.70666,-0.52895 -36.4169,0.25809 -0.45251,0.50145 -0.41041,2.42055 0.0935,4.26467 0.88096,3.22359 1.05887,3.32607 4.61104,2.65623 2.0321,-0.3832 11.00723,-0.90981 19.94473,-1.17025 z M 543.4788,190.0343 c 0.71416,-1.15554 -1.83071,-6.3356 -9.22838,-18.7843 -5.34775,-8.99912 -6.51169,-10.25431 -7.71037,-8.31481 -0.74368,1.20331 12.00534,26.71817 13.6887,27.39545 1.9871,0.79948 2.60777,0.74289 3.25005,-0.29634 z m 44.57824,-4.2843 c -0.4914,-1.2375 -3.54595,-8.1 -6.78789,-15.25 -5.2978,-11.68415 -6.19175,-13.06394 -8.83179,-13.63169 -3.85587,-0.82921 -32.92442,-1.04792 -33.71865,-0.25369 -0.33804,0.33804 0.14946,1.75354 1.08334,3.14556 0.93387,1.39202 4.62621,7.97794 8.2052,14.63538 l 6.50725,12.10444 12.49275,0.5473 c 6.87101,0.30102 14.61911,0.63852 17.218,0.75 4.52819,0.19425 4.68799,0.10887 3.83179,-2.0473 z M 515.444,155.44679 c 1.04218,-5.55528 -2.86295,-11.06537 -19.84672,-28.00351 C 474.43497,106.33783 459.31056,94.615638 442.30248,86.137109 429.1772,79.594154 424.84236,78.492389 412.5,78.562365 c -9.49004,0.0538 -12.02952,0.44572 -18.5,2.855078 -15.93378,5.933129 -32.00175,16.996328 -50.47743,34.754967 L 334.5,124.84482 364,109.96458 c 35.06295,-17.686274 39.5437,-19.401818 50.5,-19.334965 21.79264,0.132974 44.75499,14.330755 79,48.846245 11,11.08688 20.28649,20.02032 20.63664,19.8521 0.35015,-0.16823 0.93846,-1.91475 1.30736,-3.88117 z m 65.31057,-16.92352 c 0.896,-0.70068 -8.92766,-13.57339 -16.61026,-21.76572 C 549.83979,101.50396 538.38182,91.33071 527.14392,83.905824 510.81634,73.118183 496.77895,68.70003 474.51287,67.340639 462.64651,66.616173 437,67.82067 437,69.102444 437,69.5961 437.82739,70 438.83865,70 c 2.5943,0 21.07462,9.187496 28.16366,14.00157 12.48263,8.47679 27.1527,21.0314 44.61263,38.17937 l 18.11494,17.79128 25.38506,-0.62494 c 13.96178,-0.34371 25.49961,-0.71452 25.63963,-0.82401 z"
       id="path1" />
  </g>
</svg>
